<?xml version="1.0" encoding="utf-8"?>
<!-- Generator: Adobe Illustrator 18.0.0, SVG Export Plug-In . SVG Version: 6.00 Build 0)  -->
<!DOCTYPE svg PUBLIC "-//W3C//DTD SVG 1.1//EN" "http://www.w3.org/Graphics/SVG/1.1/DTD/svg11.dtd">
<svg version="1.1" id="Layer_1" xmlns="http://www.w3.org/2000/svg" xmlns:xlink="http://www.w3.org/1999/xlink" x="0px" y="0px"
	 viewBox="0 0 281 86.5" enable-background="new 0 0 281 86.5" xml:space="preserve">
<g>
	<g>
		<path fill="#FFFFFF" d="M0,6.5h252.8c15.2,23.4-25.7,59.6,0.1,80H0L0,6.5z"/>
		<path fill="#FFFFFF" d="M261.4,86.5c17,0,19.6,0,19.6,0v-80c0,0-11.3,0-25.1,0C271.1,29.9,235.7,66.2,261.4,86.5z"/>
	</g>
	<g>
		
			<text transform="matrix(1 0 0 1 22.9998 68.5229)" fill="#82BC00" font-family="'Comfortaa-Light'" font-size="56" letter-spacing="2">-</text>
		
			<text transform="matrix(1 0 0 1 47.6746 68.5229)" fill="#82BC00" font-family="'Comfortaa-Bold'" font-size="56" letter-spacing="2">10</text>
		
			<text transform="matrix(0.583 0 0 0.583 99.2126 49.875)" fill="#82BC00" font-family="'Comfortaa-Light'" font-size="56" letter-spacing="1.7">%</text>
	</g>
	<rect x="143" y="17.5" fill="none" width="110" height="64"/>
	<text transform="matrix(1 0 0 1 143 31.4907)"><tspan x="0" y="0" fill="#82BC00" font-family="'Ubuntu'" font-size="18">знижка на </tspan><tspan x="0" y="18" fill="#82BC00" font-family="'Ubuntu'" font-size="18">будь-яку </tspan><tspan x="0" y="36" fill="#82BC00" font-family="'Ubuntu'" font-size="18">квартиру   </tspan></text>
</g>
</svg>
