<?xml version="1.0" encoding="utf-8"?>
<!-- Generator: Adobe Illustrator 18.0.0, SVG Export Plug-In . SVG Version: 6.00 Build 0)  -->
<!DOCTYPE svg PUBLIC "-//W3C//DTD SVG 1.1//EN" "http://www.w3.org/Graphics/SVG/1.1/DTD/svg11.dtd">
<svg version="1.1" id="Layer_1" xmlns="http://www.w3.org/2000/svg" xmlns:xlink="http://www.w3.org/1999/xlink" x="0px" y="0px"
	 viewBox="0 0 16 20" enable-background="new 0 0 16 20" xml:space="preserve">
<g>
	<g>
		<path fill="#90A4AE" d="M8,20c-0.2,0-0.4-0.1-0.5-0.2c-0.2-0.2-4.8-4.1-6.7-8.4c-0.2-0.4,0-0.9,0.4-1.1c0.4-0.2,0.9,0,1.1,0.4
			C3.7,13.9,6.7,17,8,18.1c2.2-2.1,6.4-6.9,6.4-9.9c0-3.6-2.9-6.6-6.4-6.6s-6.4,3-6.4,6.6C1.6,8.6,1.2,9,0.8,9S0,8.6,0,8.2
			C0,3.7,3.6,0,8,0s8,3.7,8,8.2c0,4.7-7.2,11.3-7.5,11.6C8.4,19.9,8.2,20,8,20z"/>
	</g>
	<g>
		<path fill="#90A4AE" d="M8,11.2c-1.8,0-3.2-1.4-3.2-3.2S6.2,4.8,8,4.8s3.2,1.4,3.2,3.2S9.8,11.2,8,11.2z M8,6.4
			C7.1,6.4,6.4,7.1,6.4,8S7.1,9.6,8,9.6c0.9,0,1.6-0.7,1.6-1.6S8.9,6.4,8,6.4z"/>
	</g>
</g>
</svg>
