<?xml version="1.0" encoding="utf-8"?>
<!-- Generator: Adobe Illustrator 18.0.0, SVG Export Plug-In . SVG Version: 6.00 Build 0)  -->
<!DOCTYPE svg PUBLIC "-//W3C//DTD SVG 1.1//EN" "http://www.w3.org/Graphics/SVG/1.1/DTD/svg11.dtd">
<svg version="1.1" id="Layer_1" xmlns="http://www.w3.org/2000/svg" xmlns:xlink="http://www.w3.org/1999/xlink" x="0px" y="0px"
	 viewBox="0 0 39.3 45.3" enable-background="new 0 0 39.3 45.3" xml:space="preserve">
<g>
	<polygon fill="#80BC41" points="0,11.3 19.6,0 39.3,11.3 39.3,34 19.6,45.3 0,34 	"/>
	<path fill="#FAFAFA" d="M32.2,25.3c0-0.1-0.4-2.9-2.9-5.4c-2.3-2.2-4.9-3.4-7.8-3.4c-0.1,0-0.2,0-0.3,0c-2.9-0.1-5.5,1-7.9,3.2
		c-4.3,0.5-6.8,2.6-6.7,5.7c0,0.5,0.4,0.8,0.9,0.8h1.4c0.2,1.3,1.3,2.3,2.7,2.3c1.4,0,2.5-1,2.7-2.3h11.1c0.2,1.3,1.3,2.3,2.7,2.3
		c1.4,0,2.5-1,2.7-2.3h0.5c0.2,0,0.5-0.1,0.6-0.3C32.2,25.8,32.2,25.5,32.2,25.3L32.2,25.3z M11.6,26.9c-0.6,0-1-0.5-1-1
		c0-0.6,0.5-1,1-1c0.6,0,1,0.5,1,1C12.6,26.4,12.1,26.9,11.6,26.9L11.6,26.9z M20.4,19.6h-4c1.3-0.8,2.6-1.2,4-1.3V19.6z M22.1,18.3
		c1.4,0.1,2.7,0.5,4,1.3h-4V18.3z M28.1,26.9c-0.6,0-1-0.5-1-1c0-0.6,0.5-1,1-1c0.6,0,1,0.5,1,1C29.1,26.4,28.6,26.9,28.1,26.9
		L28.1,26.9z M28.1,26.9"/>
</g>
</svg>
