<?xml version="1.0" encoding="utf-8"?>
<!-- Generator: Adobe Illustrator 18.0.0, SVG Export Plug-In . SVG Version: 6.00 Build 0)  -->
<!DOCTYPE svg PUBLIC "-//W3C//DTD SVG 1.1//EN" "http://www.w3.org/Graphics/SVG/1.1/DTD/svg11.dtd">
<svg version="1.1" id="Layer_1" xmlns="http://www.w3.org/2000/svg" xmlns:xlink="http://www.w3.org/1999/xlink" x="0px" y="0px"
	 viewBox="0 0 39.3 45.3" enable-background="new 0 0 39.3 45.3" xml:space="preserve">
<g>
	<polygon fill="#80BC41" points="0,11.3 19.6,0 39.3,11.3 39.3,34 19.6,45.3 0,34 	"/>
	<g>
		<path fill="#FAFAFA" d="M24.6,28.3V17.6H21v10.7H24.6z M29.9,28.3V17.6h-3.6v10.7H29.9z M31.7,15.5L20.1,8.7L8.5,15.5
			c0,0-0.8,0.7,0,1.2h23.2C31.7,16.7,32.3,16.1,31.7,15.5L31.7,15.5z M19.2,28.3V17.6h-3.6v10.7H19.2z M13.9,28.3V17.6h-3.6v10.7
			H13.9z M30.9,29.5L9.6,29.6l-2,2.6v1.5h25v-1.5L30.9,29.5z M30.9,29.5"/>
	</g>
</g>
</svg>
