<?xml version="1.0" encoding="utf-8"?>
<!-- Generator: Adobe Illustrator 18.0.0, SVG Export Plug-In . SVG Version: 6.00 Build 0)  -->
<!DOCTYPE svg PUBLIC "-//W3C//DTD SVG 1.1//EN" "http://www.w3.org/Graphics/SVG/1.1/DTD/svg11.dtd">
<svg version="1.1" id="Layer_1" xmlns="http://www.w3.org/2000/svg" xmlns:xlink="http://www.w3.org/1999/xlink" x="0px" y="0px"
	 viewBox="0 0 39.3 45.3" enable-background="new 0 0 39.3 45.3" xml:space="preserve">
<g>
	<polygon fill="#80BC41" points="0,11.3 19.6,0 39.3,11.3 39.3,34 19.6,45.3 0,34 	"/>
	<g>
		<path fill="#FFFFFF" d="M32.4,19v-3.9c0-0.2-0.2-0.4-0.5-0.4H7.3c-0.3,0-0.5,0.2-0.5,0.4v3.5c0,0.2,0.2,0.4,0.4,0.4
			c1.9,0.2,3.5,1.7,3.5,3.6s-1.5,3.4-3.5,3.6c-0.2,0-0.4,0.2-0.4,0.4v3.5c0,0.2,0.2,0.4,0.5,0.4H32c0.3,0,0.5-0.2,0.5-0.4v-3.5
			c0-0.2-0.2-0.4-0.4-0.4c-1.9-0.2-3.5-1.7-3.5-3.6C28.6,20.7,30.3,19,32.4,19z M27.5,26.7c0,0.7-0.6,1.3-1.3,1.3h-13
			c-0.7,0-1.3-0.6-1.3-1.3v-7.7c0-0.7,0.6-1.3,1.3-1.3h13c0.7,0,1.3,0.6,1.3,1.3V26.7z"/>
		<path fill="#FFFFFF" d="M25.4,18.7H13.9c-0.4,0-0.8,0.3-0.8,0.8v6.8c0,0.4,0.3,0.8,0.8,0.8h11.6c0.4,0,0.8-0.3,0.8-0.8v-6.8
			C26.2,19.1,25.9,18.7,25.4,18.7z"/>
	</g>
</g>
</svg>
