<?xml version="1.0" encoding="utf-8"?>
<!-- Generator: Adobe Illustrator 18.0.0, SVG Export Plug-In . SVG Version: 6.00 Build 0)  -->
<!DOCTYPE svg PUBLIC "-//W3C//DTD SVG 1.1//EN" "http://www.w3.org/Graphics/SVG/1.1/DTD/svg11.dtd">
<svg version="1.1" id="Layer_1" xmlns="http://www.w3.org/2000/svg" xmlns:xlink="http://www.w3.org/1999/xlink" x="0px" y="0px"
	 viewBox="0 0 39.3 45.3" enable-background="new 0 0 39.3 45.3" xml:space="preserve">
<g>
	<polygon fill="#80BC41" points="0,11.3 19.6,0 39.3,11.3 39.3,34 19.6,45.3 0,34 	"/>
	<g>
		<g>
			<path fill="#FAFAFA" d="M21.3,31.4h-3.5c-0.3,0-0.6,0.3-0.6,0.6v2.9c0,0.3,0.3,0.6,0.6,0.6h3.5c0.3,0,0.6-0.3,0.6-0.6V32
				C21.9,31.7,21.7,31.4,21.3,31.4L21.3,31.4z M21.3,31.4"/>
			<path fill="#FAFAFA" d="M28.8,28.8l-3.6-5.4h1.2c0.2,0,0.4-0.1,0.5-0.3c0.1-0.2,0.1-0.4-0.1-0.5L23,17.2h1.3
				c0.2,0,0.4-0.1,0.4-0.2c0.1-0.2,0.1-0.3-0.1-0.5L20,10.1c-0.1-0.1-0.3-0.2-0.4-0.2c-0.2,0-0.3,0.1-0.4,0.2l-4.7,6.4
				c-0.1,0.2-0.1,0.3-0.1,0.5c0.1,0.2,0.2,0.2,0.4,0.2h1.3l-3.7,5.4c-0.1,0.2-0.1,0.4-0.1,0.5c0.1,0.2,0.3,0.3,0.5,0.3h1.2l-3.6,5.4
				c-0.1,0.2-0.1,0.4-0.1,0.6c0.1,0.2,0.3,0.3,0.5,0.3h17.4c0.2,0,0.4-0.1,0.5-0.3C29,29.2,28.9,29,28.8,28.8L28.8,28.8z M28.8,28.8
				"/>
		</g>
	</g>
</g>
</svg>
