<?xml version="1.0" encoding="utf-8"?>
<!-- Generator: Adobe Illustrator 18.0.0, SVG Export Plug-In . SVG Version: 6.00 Build 0)  -->
<!DOCTYPE svg PUBLIC "-//W3C//DTD SVG 1.1//EN" "http://www.w3.org/Graphics/SVG/1.1/DTD/svg11.dtd">
<svg version="1.1" id="Layer_1" xmlns="http://www.w3.org/2000/svg" xmlns:xlink="http://www.w3.org/1999/xlink" x="0px" y="0px"
	 viewBox="0 0 1400 1687.5" enable-background="new 0 0 1400 1687.5" xml:space="preserve">
<path fill="#EEEEEE" d="M1337.4,797.6H762.6l-24.9,0c-20.7,0-37.5-16.7-37.5-37.4l0-366.6c0,0,1.6-17.3-14.9-29.9
	c-20.7-15.7-42.5-1.6-42.5-1.6l-110,68.5c0,0-15.9,9-25,25.3c-8,14.3-7.6,32.4-7.6,32.4v710.8c0,0-0.6,14,7.6,29.9
	c9.5,18.4,29.9,27.1,29.9,27.1l102.5,64.6c0,0,24.1,19.5,47.5-2c14.5-13.4,12.5-27.4,12.5-27.4l-0.1-262c0-20.6,16.8-37.4,37.5-37.4
	h424.8c20.7,0,37.5,16.7,37.5,37.4v131.9c0,22.2-11.9,42.8-31.2,53.9l-437.4,252.1c-9.7,5.6-20.5,8.3-31.3,8.3
	c-10.8,0-21.6-2.8-31.3-8.3l-437.3-252.1c-19.3-11.1-31.2-31.7-31.2-53.9v-635c0-22.3,11.9-42.8,31.2-53.9l437.4-252.3
	c9.7-5.6,20.4-8.3,31.2-8.3c10.8,0,21.5,2.8,31.2,8.3l404.2,233.2c0.1-0.1,21.6,12,23.8,13.3c5.2,3.1,19.9,13.1,25.5,20.4
	c8.1,10.5,11.5,21.4,11.5,31.8c0,3.2,0,7.7,0,12.8v0c0,13.9,5.6,26.5,14.6,35.6c9.2,9.4,22.1,15.3,36.3,15.3h101.9
	c15.2,0,28.9-6.7,38.2-17.2c7.9-9,12.7-20.8,12.7-33.7l0-72c0-16.5-0.3-34.9-0.1-34.9c-0.2-6.8-1.5-15.1-7.5-26.1
	c-5.1-9.3-9.7-15.9-25.3-24.9C1351.6,364.7,734.7,10,734.7,10s-15.9-9.9-34.6-10c-18.7,0.1-34.6,10-34.6,10L33.1,373.7
	c0,0-16.2,8.8-25.2,24.9c-6.6,11.8-7.6,29.6-7.6,34.9V1249c0,8.4-2.8,26.9,7.6,42.4c10.4,15.4,25.2,22.4,25.2,22.4l632.4,363.8
	c0,0,15.9,9.9,34.6,10c18.7-0.1,34.6-10,34.6-10l632.4-363.8c0,0,16.5-8.7,25.3-24.9c6.4-11.8,7.5-29.5,7.7-34.9c0,4.7,0-394,0-394
	C1399.9,825.5,1371.9,797.6,1337.4,797.6z"/>
</svg>
