<?xml version="1.0" encoding="utf-8"?>
<!-- Generator: Adobe Illustrator 18.0.0, SVG Export Plug-In . SVG Version: 6.00 Build 0)  -->
<!DOCTYPE svg PUBLIC "-//W3C//DTD SVG 1.1//EN" "http://www.w3.org/Graphics/SVG/1.1/DTD/svg11.dtd">
<svg version="1.1" id="Layer_1" xmlns="http://www.w3.org/2000/svg" xmlns:xlink="http://www.w3.org/1999/xlink" x="0px" y="0px"
	 viewBox="0 0 135 40" enable-background="new 0 0 135 40" xml:space="preserve">
<g>
	<rect x="0" y="0" fill="#86C440" width="58.2" height="40"/>
	<linearGradient id="SVGID_1_" gradientUnits="userSpaceOnUse" x1="6.9701" y1="39.997" x2="6.9701" y2="8.237075e-007">
		<stop  offset="0" style="stop-color:#54795D"/>
		<stop  offset="1" style="stop-color:#76C04E"/>
	</linearGradient>
	<path fill="url(#SVGID_1_)" d="M10.1,40C2.7,40,0,40,0,40V0c0,0,4.2,0,10.1,0C3.5,11.7,21.3,29.8,10.1,40z"/>
	<path fill="#FFFFFF" d="M49.6,18.9H37.7l-0.5,0c-0.4,0-0.8-0.3-0.8-0.8l0-7.6c0,0,0-0.4-0.3-0.6c-0.4-0.3-0.9,0-0.9,0l-2.3,1.4
		c0,0-0.3,0.2-0.5,0.5c-0.2,0.3-0.2,0.7-0.2,0.7v14.8c0,0,0,0.3,0.2,0.6c0.2,0.4,0.6,0.6,0.6,0.6l2.1,1.3c0,0,0.5,0.4,1,0
		c0.3-0.3,0.3-0.6,0.3-0.6l0-5.4c0-0.4,0.3-0.8,0.8-0.8H46c0.4,0,0.8,0.3,0.8,0.8v2.7c0,0.5-0.2,0.9-0.6,1.1L37,32.9
		C36.8,33,36.6,33,36.4,33c-0.2,0-0.4-0.1-0.6-0.2l-9.1-5.2C26.2,27.4,26,27,26,26.5V13.3c0-0.5,0.2-0.9,0.6-1.1l9.1-5.2
		c0.2-0.1,0.4-0.2,0.6-0.2c0.2,0,0.4,0.1,0.6,0.2l8.4,4.8c0,0,0.4,0.2,0.5,0.3c0.1,0.1,0.4,0.3,0.5,0.4c0.2,0.2,0.2,0.4,0.2,0.7
		c0,0.1,0,0.2,0,0.3v0c0,0.3,0.1,0.5,0.3,0.7c0.2,0.2,0.5,0.3,0.8,0.3h2.1c0.3,0,0.6-0.1,0.8-0.4c0.2-0.2,0.3-0.4,0.3-0.7l0-1.5
		c0-0.3,0-0.7,0-0.7c0-0.1,0-0.3-0.2-0.5c-0.1-0.2-0.2-0.3-0.5-0.5c-0.3-0.2-13.1-7.6-13.1-7.6s-0.3-0.2-0.7-0.2
		c-0.4,0-0.7,0.2-0.7,0.2l-13.1,7.6c0,0-0.3,0.2-0.5,0.5c-0.1,0.2-0.2,0.6-0.2,0.7v16.9c0,0.2-0.1,0.6,0.2,0.9
		c0.2,0.3,0.5,0.5,0.5,0.5l13.1,7.6c0,0,0.3,0.2,0.7,0.2c0.4,0,0.7-0.2,0.7-0.2l13.1-7.6c0,0,0.3-0.2,0.5-0.5
		c0.1-0.2,0.2-0.6,0.2-0.7c0,0.1,0-8.2,0-8.2C50.9,19.5,50.3,18.9,49.6,18.9z"/>
	<g>
		<path fill="#58595B" d="M68.7,35.6v0.5h-3.1c0-0.1,0-0.3,0.1-0.4c0.1-0.2,0.2-0.4,0.4-0.6c0.2-0.2,0.4-0.4,0.7-0.7
			c0.5-0.4,0.8-0.7,1-1c0.2-0.2,0.3-0.5,0.3-0.7c0-0.2-0.1-0.4-0.2-0.6c-0.2-0.2-0.4-0.2-0.6-0.2c-0.3,0-0.5,0.1-0.7,0.2
			c-0.2,0.2-0.2,0.4-0.2,0.7l-0.6-0.1c0-0.4,0.2-0.7,0.5-1c0.3-0.2,0.6-0.3,1-0.3c0.4,0,0.8,0.1,1.1,0.4c0.3,0.2,0.4,0.5,0.4,0.9
			c0,0.2,0,0.4-0.1,0.5c-0.1,0.2-0.2,0.4-0.4,0.6c-0.2,0.2-0.5,0.5-0.9,0.8c-0.3,0.3-0.6,0.5-0.7,0.6c-0.1,0.1-0.2,0.2-0.2,0.3H68.7
			z"/>
		<path fill="#58595B" d="M69.9,33.9c0-0.5,0.1-1,0.2-1.3c0.1-0.3,0.3-0.6,0.5-0.8c0.2-0.2,0.5-0.3,0.8-0.3c0.2,0,0.5,0,0.7,0.1
			c0.2,0.1,0.3,0.2,0.5,0.4c0.1,0.2,0.2,0.4,0.3,0.7c0.1,0.3,0.1,0.6,0.1,1.1c0,0.5-0.1,1-0.2,1.3c-0.1,0.3-0.3,0.6-0.5,0.8
			c-0.2,0.2-0.5,0.3-0.8,0.3c-0.4,0-0.8-0.2-1-0.5C70.1,35.4,69.9,34.8,69.9,33.9z M70.5,33.9c0,0.7,0.1,1.2,0.3,1.5
			c0.2,0.2,0.4,0.4,0.7,0.4s0.5-0.1,0.7-0.4c0.2-0.2,0.3-0.7,0.3-1.5c0-0.7-0.1-1.2-0.3-1.5c-0.2-0.2-0.4-0.4-0.7-0.4
			c-0.3,0-0.5,0.1-0.6,0.3C70.6,32.7,70.5,33.2,70.5,33.9z"/>
		<path fill="#58595B" d="M76.3,36.2h-0.6v-3.5c-0.1,0.1-0.3,0.3-0.5,0.4c-0.2,0.1-0.4,0.2-0.6,0.3v-0.5c0.3-0.1,0.6-0.3,0.8-0.5
			c0.2-0.2,0.4-0.4,0.5-0.6h0.4V36.2z"/>
		<path fill="#58595B" d="M81.3,32.8l-0.6,0c-0.1-0.2-0.1-0.4-0.2-0.5c-0.2-0.2-0.3-0.2-0.6-0.2c-0.2,0-0.3,0-0.5,0.1
			c-0.2,0.1-0.3,0.3-0.4,0.6c-0.1,0.2-0.2,0.6-0.2,1c0.1-0.2,0.3-0.4,0.5-0.5c0.2-0.1,0.4-0.1,0.6-0.1c0.4,0,0.7,0.1,1,0.4
			c0.3,0.3,0.4,0.6,0.4,1.1c0,0.3-0.1,0.5-0.2,0.8c-0.1,0.2-0.3,0.4-0.5,0.6c-0.2,0.1-0.5,0.2-0.7,0.2c-0.5,0-0.9-0.2-1.2-0.5
			c-0.3-0.3-0.4-0.9-0.4-1.7c0-0.9,0.2-1.5,0.5-1.9c0.3-0.3,0.7-0.5,1.2-0.5c0.4,0,0.7,0.1,0.9,0.3C81.2,32.1,81.3,32.4,81.3,32.8z
			 M79,34.7c0,0.2,0,0.4,0.1,0.5c0.1,0.2,0.2,0.3,0.3,0.4c0.1,0.1,0.3,0.1,0.5,0.1c0.2,0,0.4-0.1,0.6-0.3c0.2-0.2,0.3-0.4,0.3-0.8
			c0-0.3-0.1-0.6-0.3-0.7c-0.2-0.2-0.4-0.3-0.6-0.3c-0.3,0-0.5,0.1-0.7,0.3C79.1,34.2,79,34.4,79,34.7z"/>
	</g>
	<path fill="#58595B" d="M76.1,9.6c0.3,0.3,0.5,0.8,0.5,1.5c0,0.9-0.1,1.7-0.4,2.5c-0.3,0.8-0.7,1.4-1.2,1.9c-0.5,0.5-1.2,1-1.9,1.3
		c-0.7,0.3-1.6,0.4-2.5,0.4c-0.9,0-1.7-0.2-2.5-0.5c-0.8-0.3-1.4-0.8-2-1.4c-0.6-0.6-1-1.3-1.3-2.1c-0.3-0.8-0.5-1.8-0.5-2.8
		c0-1,0.2-2,0.5-2.8c0.3-0.8,0.7-1.6,1.3-2.1c0.6-0.6,1.2-1,2-1.3c0.8-0.3,1.7-0.5,2.7-0.5c0.7,0,1.4,0.1,2,0.2
		c0.6,0.2,1.1,0.4,1.5,0.6c0.4,0.3,0.7,0.5,1,0.9c0.2,0.3,0.3,0.6,0.3,0.9c0,0.4-0.1,0.7-0.4,1c-0.2,0.3-0.5,0.4-0.9,0.4
		c-0.2,0-0.5-0.1-0.7-0.2c-0.2-0.1-0.5-0.3-0.8-0.4c-0.3-0.1-0.6-0.3-1-0.4c-0.4-0.1-0.7-0.2-1.2-0.2c-1,0-1.8,0.3-2.4,1
		c-0.6,0.7-0.9,1.6-0.9,2.9c0,1.3,0.3,2.3,0.9,3c0.6,0.7,1.4,1.1,2.3,1.1c0.8,0,1.4-0.2,1.9-0.7c0.5-0.5,0.7-1.1,0.7-1.9h-1
		c-0.7,0-1.2-0.1-1.5-0.3c-0.3-0.2-0.5-0.6-0.5-1c0-0.5,0.2-0.8,0.5-1.1c0.3-0.2,0.9-0.3,1.5-0.3h2.2C75.2,9.1,75.7,9.3,76.1,9.6z"
		/>
	<path fill="#58595B" d="M81.7,17.1c-1,0-1.5-0.7-1.5-2.1V5.8c0-0.7,0.1-1.3,0.4-1.6c0.3-0.3,0.8-0.5,1.7-0.5h2.4
		c1.7,0,2.9,0.4,3.8,1.2c0.9,0.8,1.3,1.8,1.3,3c0,1-0.3,1.8-0.8,2.4c-0.6,0.6-1.3,1-2.3,1.2l2.4,2.7c0.6,0.7,0.9,1.3,0.9,1.7
		c0,0.4-0.1,0.7-0.4,1c-0.3,0.3-0.6,0.4-1,0.4c-0.3,0-0.6-0.1-0.8-0.3c-0.2-0.2-0.5-0.4-0.8-0.8l-3.5-4.5V15
		C83.2,16.4,82.7,17.1,81.7,17.1z M86.1,9.3C86.4,9,86.5,8.5,86.5,8c0-0.5-0.2-0.9-0.5-1.2c-0.3-0.3-0.8-0.4-1.4-0.4h-1.4v3.3h1.4
		C85.2,9.7,85.7,9.5,86.1,9.3z"/>
	<path fill="#58595B" d="M100.8,5.4l3.3,9.5c0.1,0.2,0.1,0.4,0.2,0.5c0,0.1,0.1,0.3,0.1,0.4c0,0.4-0.1,0.7-0.4,1
		c-0.3,0.2-0.6,0.4-1.1,0.4c-0.8,0-1.3-0.5-1.6-1.4l-0.5-1.5h-4.7l-0.5,1.7c-0.3,0.9-0.8,1.3-1.5,1.3c-0.4,0-0.8-0.1-1-0.4
		c-0.3-0.3-0.4-0.6-0.4-1c0-0.3,0-0.6,0.1-0.9l3.4-9.3c0.5-1.3,1.2-1.9,2.3-1.9C99.7,3.6,100.4,4.2,100.8,5.4z M100,11.6l-1.5-4.7h0
		L97,11.6H100z"/>
	<path fill="#58595B" d="M109.1,17.2c-1,0-1.5-0.7-1.5-2.1V5.7c0-0.7,0.1-1.2,0.3-1.5c0.2-0.4,0.6-0.5,1.1-0.5
		c0.3,0,0.6,0.1,0.9,0.3c0.2,0.2,0.5,0.4,0.7,0.7l5.6,7.4V5.8c0-1.4,0.5-2.1,1.5-2.1c1,0,1.5,0.7,1.5,2.1v9.6c0,0.6-0.1,1.1-0.3,1.4
		c-0.2,0.3-0.6,0.5-1.1,0.5c-0.6,0-1.2-0.4-1.7-1.1L110.6,9v6.1C110.6,16.5,110.1,17.2,109.1,17.2z"/>
	<path fill="#58595B" d="M130.1,3.9c0.7,0.1,1.3,0.4,1.8,0.7c0.9,0.6,1.6,1.3,2.1,2.4c0.5,1,0.8,2.1,0.8,3.3c0,1.1-0.2,2-0.5,2.9
		c-0.3,0.9-0.7,1.6-1.3,2.2c-0.6,0.6-1.3,1.1-2.1,1.4c-0.8,0.3-1.7,0.5-2.8,0.5h-2.8c-0.8,0-1.4-0.1-1.7-0.4
		c-0.3-0.3-0.4-0.8-0.4-1.5V5.8c0-0.7,0.1-1.3,0.4-1.6c0.3-0.3,0.8-0.5,1.7-0.5h2.5C128.6,3.6,129.4,3.7,130.1,3.9z M131.4,10.2
		c0-2.5-1.2-3.7-3.7-3.7h-1.3v7.8h1.4C130.1,14.3,131.4,12.9,131.4,10.2z"/>
	<g>
		<path fill="#58595B" d="M66.7,28.9c-0.8,0-1.2-0.6-1.2-1.7V20c0-1.1,0.4-1.7,1.2-1.7c0.8,0,1.2,0.6,1.2,1.7v2.4h4.3V20
			c0-1.1,0.4-1.7,1.2-1.7s1.2,0.6,1.2,1.7v7.2c0,1.1-0.4,1.7-1.2,1.7s-1.2-0.6-1.2-1.7v-2.6h-4.3v2.6C67.8,28.4,67.5,28.9,66.7,28.9
			z"/>
		<path fill="#58595B" d="M77.8,21.5c0.2-0.6,0.6-1.2,1-1.7c0.4-0.5,1-0.8,1.6-1.1c0.6-0.2,1.3-0.4,2-0.4c0.7,0,1.4,0.1,2,0.4
			c0.6,0.2,1.1,0.6,1.6,1.1c0.4,0.5,0.8,1,1,1.7c0.2,0.6,0.4,1.4,0.4,2.2c0,0.8-0.1,1.5-0.3,2.2c-0.2,0.6-0.6,1.2-1,1.7
			c-0.4,0.5-0.9,0.8-1.6,1.1c-0.6,0.2-1.3,0.4-2,0.4c-0.7,0-1.4-0.1-2-0.4c-0.6-0.2-1.1-0.6-1.5-1.1c-0.4-0.5-0.8-1-1-1.7
			c-0.2-0.6-0.4-1.4-0.4-2.2C77.4,22.9,77.6,22.1,77.8,21.5z M80.6,25.9c0.5,0.5,1,0.8,1.8,0.8c0.7,0,1.3-0.3,1.8-0.8
			c0.5-0.5,0.7-1.3,0.7-2.2c0-1-0.2-1.8-0.7-2.3c-0.5-0.6-1-0.8-1.8-0.8c-0.7,0-1.3,0.3-1.8,0.8c-0.5,0.6-0.7,1.3-0.7,2.3
			C79.9,24.6,80.1,25.4,80.6,25.9z"/>
		<path fill="#58595B" d="M91.4,18.4c0.8,0,1.2,0.6,1.2,1.7v3.9c0,1.8,0.7,2.7,2.1,2.7c1.4,0,2.1-0.9,2.1-2.7V20
			c0-1.1,0.4-1.7,1.2-1.7c0.8,0,1.2,0.6,1.2,1.7v4.2c0,1.5-0.4,2.7-1.2,3.5c-0.8,0.8-1.9,1.2-3.2,1.2c-1.3,0-2.4-0.4-3.2-1.2
			c-0.8-0.8-1.2-2-1.2-3.5V20C90.3,18.9,90.7,18.4,91.4,18.4z"/>
		<path fill="#58595B" d="M109.4,26.9c-0.2,0.4-0.4,0.8-0.8,1.1c-0.3,0.3-0.7,0.5-1.2,0.7c-0.5,0.2-1,0.3-1.6,0.3
			c-0.5,0-0.9,0-1.3-0.1c-0.4-0.1-0.7-0.2-1-0.4c-0.3-0.2-0.5-0.3-0.7-0.5c-0.2-0.2-0.2-0.4-0.2-0.6c0-0.3,0.1-0.5,0.3-0.7
			c0.2-0.2,0.5-0.3,0.8-0.3c0.3,0,0.7,0.1,1.1,0.2c0.4,0.2,0.9,0.2,1.4,0.2c0.3,0,0.6-0.1,0.8-0.3c0.2-0.2,0.3-0.4,0.3-0.7
			c0-0.4-0.2-0.7-0.5-0.9c-0.3-0.2-0.7-0.4-1.3-0.5c-1-0.3-1.7-0.6-2.1-1.1c-0.5-0.4-0.7-1-0.7-1.8c0-0.5,0.1-0.9,0.3-1.3
			c0.2-0.4,0.4-0.7,0.7-1c0.3-0.3,0.7-0.5,1.1-0.7c0.4-0.2,0.9-0.2,1.5-0.2c0.8,0,1.5,0.1,2,0.4c0.5,0.3,0.8,0.6,0.8,1
			c0,0.3-0.1,0.5-0.3,0.7c-0.2,0.2-0.4,0.3-0.8,0.3c-0.3,0-0.6-0.1-0.9-0.2c-0.3-0.1-0.6-0.2-0.9-0.2c-0.4,0-0.6,0.1-0.8,0.2
			c-0.2,0.2-0.3,0.4-0.3,0.6c0,0.4,0.2,0.6,0.5,0.7c0.3,0.1,0.8,0.3,1.3,0.5c0.9,0.3,1.6,0.7,2.1,1.2c0.5,0.5,0.7,1.1,0.7,1.9
			C109.6,26.1,109.5,26.5,109.4,26.9z"/>
		<path fill="#58595B" d="M118.7,19.5c0,0.7-0.6,1.1-1.7,1.1h-2v1.9h1.7c1.1,0,1.7,0.4,1.7,1.1c0,0.7-0.6,1.1-1.7,1.1h-1.7v2h2
			c1.1,0,1.7,0.4,1.7,1.1c0,0.7-0.6,1.1-1.7,1.1h-2.8c-0.6,0-1.1-0.1-1.3-0.3c-0.2-0.2-0.3-0.6-0.3-1.2v-7.3c0-0.6,0.1-1,0.3-1.3
			c0.2-0.3,0.7-0.4,1.3-0.4h2.7C118.2,18.4,118.7,18.8,118.7,19.5z"/>
	</g>
</g>
</svg>
