<?xml version="1.0" encoding="utf-8"?>
<!-- Generator: Adobe Illustrator 18.0.0, SVG Export Plug-In . SVG Version: 6.00 Build 0)  -->
<!DOCTYPE svg PUBLIC "-//W3C//DTD SVG 1.1//EN" "http://www.w3.org/Graphics/SVG/1.1/DTD/svg11.dtd">
<svg version="1.1" id="Layer_1" xmlns="http://www.w3.org/2000/svg" xmlns:xlink="http://www.w3.org/1999/xlink" x="0px" y="0px"
	 viewBox="0 0 69 80" enable-background="new 0 0 69 80" xml:space="preserve">
<g>
	<polygon fill="#F6921E" points="0,20 34.5,0 69,20 69,60 34.5,80 0,60 	"/>
	<g>
		<path fill="#FFFFFF" d="M53.7,34.9V29c0-0.4-0.3-0.7-0.7-0.7H16c-0.4,0-0.7,0.3-0.7,0.7v5.3c0,0.3,0.3,0.6,0.6,0.7
			c2.9,0.3,5.2,2.6,5.2,5.4s-2.3,5.1-5.2,5.4c-0.4,0-0.6,0.3-0.6,0.7v5.3c0,0.4,0.3,0.7,0.7,0.7h37c0.4,0,0.7-0.3,0.7-0.7v-5.3
			c0-0.3-0.3-0.6-0.6-0.7c-2.9-0.3-5.2-2.6-5.2-5.4C47.9,37.3,50.5,34.9,53.7,34.9z M46.3,46.4c0,1.1-0.9,1.9-1.9,1.9H24.8
			c-1.1,0-1.9-0.9-1.9-1.9V34.9c0-1.1,0.9-1.9,1.9-1.9h19.6c1.1,0,1.9,0.9,1.9,1.9V46.4z"/>
		<path fill="#FFFFFF" d="M43.2,34.4H25.9c-0.6,0-1.1,0.5-1.1,1.1v10.2c0,0.6,0.5,1.1,1.1,1.1h17.3c0.6,0,1.1-0.5,1.1-1.1V35.5
			C44.4,34.9,43.9,34.4,43.2,34.4z"/>
	</g>
</g>
</svg>
