<?xml version="1.0" encoding="utf-8"?>
<!-- Generator: Adobe Illustrator 18.0.0, SVG Export Plug-In . SVG Version: 6.00 Build 0)  -->
<!DOCTYPE svg PUBLIC "-//W3C//DTD SVG 1.1//EN" "http://www.w3.org/Graphics/SVG/1.1/DTD/svg11.dtd">
<svg version="1.1" id="Layer_1" xmlns="http://www.w3.org/2000/svg" xmlns:xlink="http://www.w3.org/1999/xlink" x="0px" y="0px"
	 viewBox="0 0 69 80" enable-background="new 0 0 69 80" xml:space="preserve">
<g>
	<polygon fill="#F6921E" points="0,20 34.5,0 69,20 69,60 34.5,80 0,60 	"/>
	<g>
		<g>
			<path fill="#FFFFFF" d="M38,54.9h-6.1c-0.5,0-1,0.4-1,1V61c0,0.5,0.4,1,1,1H38c0.5,0,1-0.4,1-1v-5.1C39,55.3,38.6,54.9,38,54.9
				L38,54.9z M38,54.9"/>
			<path fill="#FFFFFF" d="M51,50.4l-6.3-9.4h2.1c0.4,0,0.7-0.2,0.8-0.5c0.2-0.3,0.1-0.6-0.1-0.9l-6.5-9.4h2.3
				c0.3,0,0.6-0.2,0.8-0.4c0.1-0.3,0.1-0.6-0.1-0.9l-8.2-11.2c-0.2-0.2-0.4-0.4-0.7-0.4c-0.3,0-0.5,0.1-0.7,0.4l-8.2,11.2
				c-0.2,0.3-0.2,0.6-0.1,0.9c0.1,0.3,0.4,0.4,0.8,0.4h2.3l-6.5,9.4c-0.2,0.3-0.2,0.7-0.1,0.9c0.1,0.3,0.5,0.5,0.8,0.5h2.1l-6.3,9.4
				c-0.2,0.3-0.3,0.7-0.1,1c0.2,0.3,0.5,0.5,0.9,0.5h30.3c0.4,0,0.7-0.2,0.9-0.5C51.2,51.1,51.2,50.7,51,50.4L51,50.4z M51,50.4"/>
		</g>
	</g>
</g>
</svg>
