<?xml version="1.0" encoding="utf-8"?>
<!-- Generator: Adobe Illustrator 18.0.0, SVG Export Plug-In . SVG Version: 6.00 Build 0)  -->
<!DOCTYPE svg PUBLIC "-//W3C//DTD SVG 1.1//EN" "http://www.w3.org/Graphics/SVG/1.1/DTD/svg11.dtd">
<svg version="1.1" id="Layer_1" xmlns="http://www.w3.org/2000/svg" xmlns:xlink="http://www.w3.org/1999/xlink" x="0px" y="0px"
	 viewBox="0 0 30 30" enable-background="new 0 0 30 30" xml:space="preserve">
<g>
	<g>
		<path fill="#CFD8DC" d="M15,1c7.7,0,14,6.3,14,14c0,7.7-6.3,14-14,14C7.3,29,1,22.7,1,15C1,7.3,7.3,1,15,1 M15,0L15,0
			C6.7,0,0,6.7,0,15v0c0,8.3,6.7,15,15,15h0c8.3,0,15-6.7,15-15v0C30,6.7,23.3,0,15,0L15,0z"/>
	</g>
	<g>
		<path fill="#CFD8DC" d="M14.8,9c-2.3,0-4.2,1.9-4.2,4.2c0,3.1,4.2,7.8,4.2,7.8s4.2-4.7,4.2-7.8C19,10.9,17.1,9,14.8,9L14.8,9z
			 M14.8,14.7c-0.8,0-1.5-0.7-1.5-1.5c0-0.8,0.7-1.5,1.5-1.5c0.8,0,1.5,0.7,1.5,1.5C16.3,14,15.6,14.7,14.8,14.7L14.8,14.7z
			 M14.8,14.7"/>
	</g>
</g>
</svg>
